<svg xmlns="http://www.w3.org/2000/svg" version="1.1" xmlns:xlink="http://www.w3.org/1999/xlink" viewBox="0 0 200 200"><rect width="200" height="200" fill="url('#gradient')"></rect><defs><linearGradient id="gradient" gradientTransform="rotate(45 0.5 0.5)"><stop offset="0%" stop-color="#fafaf9"></stop><stop offset="100%" stop-color="#ffffff"></stop></linearGradient></defs><g><g fill="#fffc00" transform="matrix(2.7589923211639498,0,0,2.7589923211639498,-1.732963853249835,120.41888625561091)" stroke="#ffd600" stroke-width="0"><path d="M8.41-3.78L8.41-3.78Q8.41-4.53 7.88-4.95Q7.34-5.37 6.01-5.82Q4.67-6.27 3.82-6.69L3.82-6.69Q1.05-8.05 1.05-10.42L1.05-10.42Q1.05-11.60 1.74-12.50Q2.43-13.41 3.69-13.91Q4.95-14.41 6.52-14.41L6.52-14.41Q8.06-14.41 9.27-13.87Q10.49-13.32 11.16-12.31Q11.84-11.30 11.84-10L11.84-10L8.42-10Q8.42-10.87 7.89-11.35Q7.35-11.83 6.45-11.83L6.45-11.83Q5.53-11.83 5.00-11.42Q4.46-11.02 4.46-10.39L4.46-10.39Q4.46-9.84 5.05-9.40Q5.63-8.96 7.11-8.48Q8.58-8.01 9.53-7.46L9.53-7.46Q11.84-6.13 11.84-3.80L11.84-3.80Q11.84-1.93 10.43-0.87Q9.02 0.20 6.57 0.20L6.57 0.20Q4.84 0.20 3.44-0.42Q2.04-1.04 1.33-2.12Q0.63-3.20 0.63-4.61L0.63-4.61L4.06-4.61Q4.06-3.47 4.65-2.92Q5.24-2.38 6.57-2.38L6.57-2.38Q7.42-2.38 7.92-2.75Q8.41-3.12 8.41-3.78ZM19.83 0L19.74-1.14Q18.69 0.20 16.91 0.20L16.91 0.20Q15.18 0.20 14.28-0.82Q13.39-1.83 13.39-3.72L13.39-3.72L13.39-10.57L16.68-10.57L16.68-3.70Q16.68-2.34 18.00-2.34L18.00-2.34Q19.13-2.34 19.61-3.15L19.61-3.15L19.61-10.57L22.92-10.57L22.92 0L19.83 0ZM24.66-10.57L27.74-10.57L27.85-9.33Q28.95-10.76 30.87-10.76L30.87-10.76Q32.52-10.76 33.33-9.78Q34.15-8.79 34.18-6.81L34.18-6.81L34.18 0L30.88 0L30.88-6.67Q30.88-7.47 30.56-7.85Q30.23-8.22 29.38-8.22L29.38-8.22Q28.42-8.22 27.95-7.46L27.95-7.46L27.95 0L24.66 0L24.66-10.57ZM36.15-14.22L40.65-14.22L43.83-4.33L46.99-14.22L51.50-14.22L51.50 0L48.07 0L48.07-3.32L48.40-10.12L44.96 0L42.70 0L39.25-10.13L39.58-3.32L39.58 0L36.15 0L36.15-14.22ZM62.77 0L59.48 0Q59.31-0.32 59.17-0.95L59.17-0.95Q58.26 0.20 56.63 0.20L56.63 0.20Q55.14 0.20 54.09-0.71Q53.05-1.61 53.05-2.98L53.05-2.98Q53.05-4.70 54.32-5.58Q55.59-6.46 58.01-6.46L58.01-6.46L59.02-6.46L59.02-7.01Q59.02-8.47 57.76-8.47L57.76-8.47Q56.59-8.47 56.59-7.31L56.59-7.31L53.30-7.31Q53.30-8.85 54.60-9.80Q55.91-10.76 57.93-10.76Q59.95-10.76 61.12-9.78Q62.29-8.79 62.32-7.07L62.32-7.07L62.32-2.39Q62.34-0.94 62.77-0.17L62.77-0.17L62.77 0ZM57.42-2.15L57.42-2.15Q58.04-2.15 58.44-2.41Q58.85-2.68 59.02-3.01L59.02-3.01L59.02-4.70L58.07-4.70Q56.35-4.70 56.35-3.15L56.35-3.15Q56.35-2.71 56.65-2.43Q56.95-2.15 57.42-2.15ZM67.62-15L67.62 0L64.32 0L64.32-15L67.62-15ZM73.12-15L73.12 0L69.81 0L69.81-15L73.12-15Z"></path></g></g></svg>